<?xml version="1.0" encoding="utf-8" standalone="no"?>
<!DOCTYPE svg PUBLIC "-//W3C//DTD SVG 1.1//EN"
  "http://www.w3.org/Graphics/SVG/1.1/DTD/svg11.dtd">
<svg xmlns:xlink="http://www.w3.org/1999/xlink" width="365.0582pt" height="267.702812pt" viewBox="0 0 365.0582 267.702812" xmlns="http://www.w3.org/2000/svg" version="1.1">
 <metadata>
  <rdf:RDF xmlns:dc="http://purl.org/dc/elements/1.1/" xmlns:cc="http://creativecommons.org/ns#" xmlns:rdf="http://www.w3.org/1999/02/22-rdf-syntax-ns#">
   <cc:Work>
    <dc:type rdf:resource="http://purl.org/dc/dcmitype/StillImage"/>
    <dc:format>image/svg+xml</dc:format>
    <dc:creator>
     <cc:Agent>
      <dc:title>Matplotlib v3.10.6, https://matplotlib.org/</dc:title>
     </cc:Agent>
    </dc:creator>
   </cc:Work>
  </rdf:RDF>
 </metadata>
 <defs>
  <style type="text/css">*{stroke-linejoin: round; stroke-linecap: butt}</style>
 </defs>
 <g id="figure_1">
  <g id="patch_1">
   <path d="M -0 267.702812 
L 365.0582 267.702812 
L 365.0582 0 
L -0 0 
z
" style="fill: #ffffff"/>
  </g>
  <g id="spine_group.0">
   <g id="patch_2">
    <path d="M 13.86375 214.988125 
L 243.751998 214.988125 
L 243.751998 19.978125 
L 13.86375 19.978125 
z
" style="fill: #ffffff"/>
   </g>
   <g id="line.0.0">
    <path d="M 13.86375 128.317014 
L 243.751998 128.317014 
" clip-path="url(#pc9a90beff7)" style="fill: none; stroke-dasharray: 2.59,1.12; stroke-dashoffset: 0; stroke: #c0c0c0; stroke-width: 0.7"/>
   </g>
   <g id="line.0.1">
    <path d="M 112.387285 214.988125 
L 112.387285 19.978125 
" clip-path="url(#pc9a90beff7)" style="fill: none; stroke-dasharray: 2.59,1.12; stroke-dashoffset: 0; stroke: #c0c0c0; stroke-width: 0.7"/>
   </g>
   <g id="patch.0.0">
    <path d="M 156.353701 145.892707 
C 149.802971 146.073224 143.541782 147.644238 138.94909 150.259749 
C 134.356397 152.87526 131.807174 156.321724 131.862857 159.840097 
C 131.91854 163.358471 134.574582 166.661494 139.246022 169.021714 
C 143.917462 171.381935 150.222896 172.60665 156.773627 172.426133 
C 163.324357 172.245615 169.585546 170.674602 174.178238 168.059091 
C 178.770931 165.443579 181.320154 161.997115 181.264471 158.478742 
C 181.208788 154.960368 178.552746 151.657345 173.881306 149.297125 
C 169.209866 146.936905 162.904432 145.712189 156.353701 145.892707 
z
" clip-path="url(#pc9a90beff7)" style="fill: #d62728; opacity: 0.12; stroke: #d62728; stroke-width: 1.1; stroke-linejoin: miter"/>
   </g>
   <g id="collection.0.0">
    <defs>
     <path id="md9a4c171de" d="M 0 3.354102 
C 0.889518 3.354102 1.742724 3.000693 2.371708 2.371708 
C 3.000693 1.742724 3.354102 0.889518 3.354102 0 
C 3.354102 -0.889518 3.000693 -1.742724 2.371708 -2.371708 
C 1.742724 -3.000693 0.889518 -3.354102 0 -3.354102 
C -0.889518 -3.354102 -1.742724 -3.000693 -2.371708 -2.371708 
C -3.000693 -1.742724 -3.354102 -0.889518 -3.354102 0 
C -3.354102 0.889518 -3.000693 1.742724 -2.371708 2.371708 
C -1.742724 3.000693 -0.889518 3.354102 0 3.354102 
z
" style="stroke: #ffffff; stroke-opacity: 0.92; stroke-width: 0.55"/>
    </defs>
    <g clip-path="url(#pc9a90beff7)">
     <use xlink:href="#md9a4c171de" x="176.160255" y="147.836153" style="fill: #d62728; fill-opacity: 0.92; stroke: #ffffff; stroke-opacity: 0.92; stroke-width: 0.55"/>
     <use xlink:href="#md9a4c171de" x="179.202248" y="165.981829" style="fill: #d62728; fill-opacity: 0.92; stroke: #ffffff; stroke-opacity: 0.92; stroke-width: 0.55"/>
     <use xlink:href="#md9a4c171de" x="130.858866" y="148.28513" style="fill: #d62728; fill-opacity: 0.92; stroke: #ffffff; stroke-opacity: 0.92; stroke-width: 0.55"/>
     <use xlink:href="#md9a4c171de" x="140.033286" y="174.534567" style="fill: #d62728; fill-opacity: 0.92; stroke: #ffffff; stroke-opacity: 0.92; stroke-width: 0.55"/>
    </g>
   </g>
   <g id="patch.0.1">
    <path d="M 129.468447 112.282519 
C 124.929974 111.494619 120.456765 111.94255 117.033992 113.52766 
C 113.611218 115.112771 111.518335 117.705643 111.216275 120.735227 
C 110.914215 123.764812 112.427641 126.983756 115.423237 129.683125 
C 118.418833 132.382493 122.652023 134.341895 127.190496 135.129795 
C 131.728968 135.917695 136.202177 135.469764 139.624951 133.884653 
C 143.047724 132.299543 145.140607 129.706671 145.442667 126.677086 
C 145.744727 123.647502 144.231301 120.428558 141.235705 117.729189 
C 138.240109 115.02982 134.006919 113.070418 129.468447 112.282519 
z
" clip-path="url(#pc9a90beff7)" style="fill: #e69f00; opacity: 0.12; stroke: #e69f00; stroke-width: 1.1; stroke-linejoin: miter"/>
   </g>
   <g id="collection.0.1">
    <defs>
     <path id="m74369be50c" d="M 0 3.354102 
C 0.889518 3.354102 1.742724 3.000693 2.371708 2.371708 
C 3.000693 1.742724 3.354102 0.889518 3.354102 0 
C 3.354102 -0.889518 3.000693 -1.742724 2.371708 -2.371708 
C 1.742724 -3.000693 0.889518 -3.354102 0 -3.354102 
C -0.889518 -3.354102 -1.742724 -3.000693 -2.371708 -2.371708 
C -3.000693 -1.742724 -3.354102 -0.889518 -3.354102 0 
C -3.354102 0.889518 -3.000693 1.742724 -2.371708 2.371708 
C -1.742724 3.000693 -0.889518 3.354102 0 3.354102 
z
" style="stroke: #ffffff; stroke-opacity: 0.92; stroke-width: 0.55"/>
    </defs>
    <g clip-path="url(#pc9a90beff7)">
     <use xlink:href="#m74369be50c" x="163.113942" y="133.016071" style="fill: #e69f00; fill-opacity: 0.92; stroke: #ffffff; stroke-opacity: 0.92; stroke-width: 0.55"/>
     <use xlink:href="#m74369be50c" x="134.995597" y="113.81342" style="fill: #e69f00; fill-opacity: 0.92; stroke: #ffffff; stroke-opacity: 0.92; stroke-width: 0.55"/>
     <use xlink:href="#m74369be50c" x="126.406315" y="104.85657" style="fill: #e69f00; fill-opacity: 0.92; stroke: #ffffff; stroke-opacity: 0.92; stroke-width: 0.55"/>
     <use xlink:href="#m74369be50c" x="109.528022" y="117.338016" style="fill: #e69f00; fill-opacity: 0.92; stroke: #ffffff; stroke-opacity: 0.92; stroke-width: 0.55"/>
     <use xlink:href="#m74369be50c" x="119.963176" y="137.016134" style="fill: #e69f00; fill-opacity: 0.92; stroke: #ffffff; stroke-opacity: 0.92; stroke-width: 0.55"/>
     <use xlink:href="#m74369be50c" x="120.280561" y="129.50872" style="fill: #e69f00; fill-opacity: 0.92; stroke: #ffffff; stroke-opacity: 0.92; stroke-width: 0.55"/>
     <use xlink:href="#m74369be50c" x="124.018685" y="130.394167" style="fill: #e69f00; fill-opacity: 0.92; stroke: #ffffff; stroke-opacity: 0.92; stroke-width: 0.55"/>
    </g>
   </g>
   <g id="patch.0.2">
    <path d="M 127.038708 114.822395 
C 129.439095 110.71349 130.950968 105.968201 131.241354 101.631623 
C 131.531741 97.295046 130.576933 93.721242 128.587215 91.6973 
C 126.597496 89.673359 123.73532 89.364525 120.631047 90.838818 
C 117.526774 92.31311 114.433854 95.450158 112.033467 99.559063 
C 109.63308 103.667969 108.121207 108.413257 107.83082 112.749835 
C 107.540434 117.086413 108.495242 120.660217 110.48496 122.684158 
C 112.474679 124.7081 115.336855 125.016933 118.441128 123.542641 
C 121.545401 122.068349 124.638321 118.931301 127.038708 114.822395 
z
" clip-path="url(#pc9a90beff7)" style="fill: #7b3294; opacity: 0.12; stroke: #7b3294; stroke-width: 1.1; stroke-linejoin: miter"/>
   </g>
   <g id="collection.0.2">
    <defs>
     <path id="m636e536869" d="M 0 3.354102 
C 0.889518 3.354102 1.742724 3.000693 2.371708 2.371708 
C 3.000693 1.742724 3.354102 0.889518 3.354102 0 
C 3.354102 -0.889518 3.000693 -1.742724 2.371708 -2.371708 
C 1.742724 -3.000693 0.889518 -3.354102 0 -3.354102 
C -0.889518 -3.354102 -1.742724 -3.000693 -2.371708 -2.371708 
C -3.000693 -1.742724 -3.354102 -0.889518 -3.354102 0 
C -3.354102 0.889518 -3.000693 1.742724 -2.371708 2.371708 
C -1.742724 3.000693 -0.889518 3.354102 0 3.354102 
z
" style="stroke: #ffffff; stroke-opacity: 0.92; stroke-width: 0.55"/>
    </defs>
    <g clip-path="url(#pc9a90beff7)">
     <use xlink:href="#m636e536869" x="127.580953" y="61.850423" style="fill: #7b3294; fill-opacity: 0.92; stroke: #ffffff; stroke-opacity: 0.92; stroke-width: 0.55"/>
     <use xlink:href="#m636e536869" x="137.717312" y="98.072023" style="fill: #7b3294; fill-opacity: 0.92; stroke: #ffffff; stroke-opacity: 0.92; stroke-width: 0.55"/>
     <use xlink:href="#m636e536869" x="128.43973" y="115.691257" style="fill: #7b3294; fill-opacity: 0.92; stroke: #ffffff; stroke-opacity: 0.92; stroke-width: 0.55"/>
     <use xlink:href="#m636e536869" x="136.824679" y="105.134105" style="fill: #7b3294; fill-opacity: 0.92; stroke: #ffffff; stroke-opacity: 0.92; stroke-width: 0.55"/>
     <use xlink:href="#m636e536869" x="101.152682" y="104.517984" style="fill: #7b3294; fill-opacity: 0.92; stroke: #ffffff; stroke-opacity: 0.92; stroke-width: 0.55"/>
     <use xlink:href="#m636e536869" x="110.825111" y="126.036658" style="fill: #7b3294; fill-opacity: 0.92; stroke: #ffffff; stroke-opacity: 0.92; stroke-width: 0.55"/>
     <use xlink:href="#m636e536869" x="111.395715" y="125.18809" style="fill: #7b3294; fill-opacity: 0.92; stroke: #ffffff; stroke-opacity: 0.92; stroke-width: 0.55"/>
     <use xlink:href="#m636e536869" x="109.879892" y="109.971863" style="fill: #7b3294; fill-opacity: 0.92; stroke: #ffffff; stroke-opacity: 0.92; stroke-width: 0.55"/>
     <use xlink:href="#m636e536869" x="113.764616" y="115.440135" style="fill: #7b3294; fill-opacity: 0.92; stroke: #ffffff; stroke-opacity: 0.92; stroke-width: 0.55"/>
     <use xlink:href="#m636e536869" x="118.165637" y="109.475099" style="fill: #7b3294; fill-opacity: 0.92; stroke: #ffffff; stroke-opacity: 0.92; stroke-width: 0.55"/>
     <use xlink:href="#m636e536869" x="119.150636" y="107.720383" style="fill: #7b3294; fill-opacity: 0.92; stroke: #ffffff; stroke-opacity: 0.92; stroke-width: 0.55"/>
    </g>
   </g>
   <g id="patch.0.3">
    <path d="M 93.672508 121.836281 
C 90.462171 121.988101 87.421654 123.560964 85.220593 126.208465 
C 83.019533 128.855965 81.837637 132.361947 81.935203 135.954257 
C 82.03277 139.546568 83.401834 142.931912 85.740875 145.364706 
C 88.079916 147.797501 91.197961 149.079118 94.408297 148.927298 
C 97.618633 148.775477 100.659151 147.202615 102.860211 144.555114 
C 105.061272 141.907614 106.243168 138.401632 106.145601 134.809321 
C 106.048035 131.21701 104.678971 127.831666 102.33993 125.398872 
C 100.000889 122.966078 96.882844 121.68446 93.672508 121.836281 
z
" clip-path="url(#pc9a90beff7)" style="fill: #009e73; opacity: 0.12; stroke: #009e73; stroke-width: 1.1; stroke-linejoin: miter"/>
   </g>
   <g id="collection.0.3">
    <defs>
     <path id="m2b2c3afea3" d="M 0 3.354102 
C 0.889518 3.354102 1.742724 3.000693 2.371708 2.371708 
C 3.000693 1.742724 3.354102 0.889518 3.354102 0 
C 3.354102 -0.889518 3.000693 -1.742724 2.371708 -2.371708 
C 1.742724 -3.000693 0.889518 -3.354102 0 -3.354102 
C -0.889518 -3.354102 -1.742724 -3.000693 -2.371708 -2.371708 
C -3.000693 -1.742724 -3.354102 -0.889518 -3.354102 0 
C -3.354102 0.889518 -3.000693 1.742724 -2.371708 2.371708 
C -1.742724 3.000693 -0.889518 3.354102 0 3.354102 
z
" style="stroke: #ffffff; stroke-opacity: 0.92; stroke-width: 0.55"/>
    </defs>
    <g clip-path="url(#pc9a90beff7)">
     <use xlink:href="#m2b2c3afea3" x="62.796422" y="146.862298" style="fill: #009e73; fill-opacity: 0.92; stroke: #ffffff; stroke-opacity: 0.92; stroke-width: 0.55"/>
     <use xlink:href="#m2b2c3afea3" x="74.598613" y="149.280932" style="fill: #009e73; fill-opacity: 0.92; stroke: #ffffff; stroke-opacity: 0.92; stroke-width: 0.55"/>
     <use xlink:href="#m2b2c3afea3" x="92.124884" y="142.658958" style="fill: #009e73; fill-opacity: 0.92; stroke: #ffffff; stroke-opacity: 0.92; stroke-width: 0.55"/>
     <use xlink:href="#m2b2c3afea3" x="89.094833" y="132.675135" style="fill: #009e73; fill-opacity: 0.92; stroke: #ffffff; stroke-opacity: 0.92; stroke-width: 0.55"/>
     <use xlink:href="#m2b2c3afea3" x="86.131752" y="139.430931" style="fill: #009e73; fill-opacity: 0.92; stroke: #ffffff; stroke-opacity: 0.92; stroke-width: 0.55"/>
     <use xlink:href="#m2b2c3afea3" x="85.830813" y="135.972001" style="fill: #009e73; fill-opacity: 0.92; stroke: #ffffff; stroke-opacity: 0.92; stroke-width: 0.55"/>
     <use xlink:href="#m2b2c3afea3" x="123.258681" y="158.171198" style="fill: #009e73; fill-opacity: 0.92; stroke: #ffffff; stroke-opacity: 0.92; stroke-width: 0.55"/>
     <use xlink:href="#m2b2c3afea3" x="93.358581" y="153.963225" style="fill: #009e73; fill-opacity: 0.92; stroke: #ffffff; stroke-opacity: 0.92; stroke-width: 0.55"/>
     <use xlink:href="#m2b2c3afea3" x="97.781122" y="152.730243" style="fill: #009e73; fill-opacity: 0.92; stroke: #ffffff; stroke-opacity: 0.92; stroke-width: 0.55"/>
     <use xlink:href="#m2b2c3afea3" x="97.072401" y="109.391567" style="fill: #009e73; fill-opacity: 0.92; stroke: #ffffff; stroke-opacity: 0.92; stroke-width: 0.55"/>
     <use xlink:href="#m2b2c3afea3" x="91.990313" y="106.291306" style="fill: #009e73; fill-opacity: 0.92; stroke: #ffffff; stroke-opacity: 0.92; stroke-width: 0.55"/>
     <use xlink:href="#m2b2c3afea3" x="92.043868" y="130.521446" style="fill: #009e73; fill-opacity: 0.92; stroke: #ffffff; stroke-opacity: 0.92; stroke-width: 0.55"/>
     <use xlink:href="#m2b2c3afea3" x="90.688653" y="127.632773" style="fill: #009e73; fill-opacity: 0.92; stroke: #ffffff; stroke-opacity: 0.92; stroke-width: 0.55"/>
     <use xlink:href="#m2b2c3afea3" x="98.636975" y="128.877962" style="fill: #009e73; fill-opacity: 0.92; stroke: #ffffff; stroke-opacity: 0.92; stroke-width: 0.55"/>
     <use xlink:href="#m2b2c3afea3" x="105.095862" y="128.350099" style="fill: #009e73; fill-opacity: 0.92; stroke: #ffffff; stroke-opacity: 0.92; stroke-width: 0.55"/>
     <use xlink:href="#m2b2c3afea3" x="105.441486" y="137.227071" style="fill: #009e73; fill-opacity: 0.92; stroke: #ffffff; stroke-opacity: 0.92; stroke-width: 0.55"/>
     <use xlink:href="#m2b2c3afea3" x="100.709372" y="141.392337" style="fill: #009e73; fill-opacity: 0.92; stroke: #ffffff; stroke-opacity: 0.92; stroke-width: 0.55"/>
     <use xlink:href="#m2b2c3afea3" x="95.552004" y="122.697731" style="fill: #009e73; fill-opacity: 0.92; stroke: #ffffff; stroke-opacity: 0.92; stroke-width: 0.55"/>
     <use xlink:href="#m2b2c3afea3" x="100.371027" y="131.100952" style="fill: #009e73; fill-opacity: 0.92; stroke: #ffffff; stroke-opacity: 0.92; stroke-width: 0.55"/>
     <use xlink:href="#m2b2c3afea3" x="98.230387" y="132.407621" style="fill: #009e73; fill-opacity: 0.92; stroke: #ffffff; stroke-opacity: 0.92; stroke-width: 0.55"/>
    </g>
   </g>
   <g id="patch.0.4">
    <path d="M 175.309251 51.220912 
L 174.62379 52.873915 
L 174.327698 52.453143 
L 112.398458 128.332892 
L 112.376112 128.301136 
L 174.305352 52.421386 
L 174.00926 52.000614 
z
" clip-path="url(#pc9a90beff7)" style="fill: #2d2d2d; opacity: 0.82; stroke: #2d2d2d; stroke-linejoin: miter"/>
   </g>
   <g id="patch.0.5">
    <path d="M 156.198359 153.938048 
L 154.776878 153.758516 
L 154.953189 153.233564 
L 112.380632 128.336823 
L 112.393938 128.297204 
L 154.966496 153.193945 
L 155.142807 152.668993 
z
" clip-path="url(#pc9a90beff7)" style="fill: #2d2d2d; opacity: 0.82; stroke: #2d2d2d; stroke-linejoin: miter"/>
   </g>
   <g id="patch.0.6">
    <path d="M 151.86547 172.20166 
L 150.538474 171.505667 
L 150.818828 171.066526 
L 112.376705 128.333585 
L 112.397864 128.300443 
L 150.839987 171.033384 
L 151.120342 170.594243 
z
" clip-path="url(#pc9a90beff7)" style="fill: #2d2d2d; opacity: 0.82; stroke: #2d2d2d; stroke-linejoin: miter"/>
   </g>
   <g id="patch.0.7">
    <path d="M 193.374273 102.678057 
L 192.162304 103.674516 
L 192.060787 103.116164 
L 112.391116 128.338084 
L 112.383454 128.295944 
L 192.053125 103.074025 
L 191.951607 102.515673 
z
" clip-path="url(#pc9a90beff7)" style="fill: #2d2d2d; opacity: 0.82; stroke: #2d2d2d; stroke-linejoin: miter"/>
   </g>
   <g id="axis.x.0">
    <g id="xtick_1">
     <g id="line2d_1">
      <defs>
       <path id="m8ef4871730" d="M 0 0 
L 0 3.5 
" style="stroke: #000000; stroke-width: 0.8"/>
      </defs>
      <g>
       <use xlink:href="#m8ef4871730" x="13.86375" y="214.988125" style="stroke: #000000; stroke-width: 0.8"/>
      </g>
     </g>
     <g id="xtick.0.0">
      <text style="font-size: 16px; font-family: 'Times New Roman'; text-anchor: middle" x="13.86375" y="233.098125" transform="rotate(-0 13.86375 233.098125)">-6</text>
     </g>
    </g>
    <g id="xtick_2">
     <g id="line2d_2">
      <g>
       <use xlink:href="#m8ef4871730" x="46.704928" y="214.988125" style="stroke: #000000; stroke-width: 0.8"/>
      </g>
     </g>
     <g id="xtick.0.1">
      <text style="font-size: 16px; font-family: 'Times New Roman'; text-anchor: middle" x="46.704928" y="233.098125" transform="rotate(-0 46.704928 233.098125)">-4</text>
     </g>
    </g>
    <g id="xtick_3">
     <g id="line2d_3">
      <g>
       <use xlink:href="#m8ef4871730" x="79.546107" y="214.988125" style="stroke: #000000; stroke-width: 0.8"/>
      </g>
     </g>
     <g id="xtick.0.2">
      <text style="font-size: 16px; font-family: 'Times New Roman'; text-anchor: middle" x="79.546107" y="233.098125" transform="rotate(-0 79.546107 233.098125)">-2</text>
     </g>
    </g>
    <g id="xtick_4">
     <g id="line2d_4">
      <g>
       <use xlink:href="#m8ef4871730" x="112.387285" y="214.988125" style="stroke: #000000; stroke-width: 0.8"/>
      </g>
     </g>
     <g id="xtick.0.3">
      <text style="font-size: 16px; font-family: 'Times New Roman'; text-anchor: middle" x="112.387285" y="233.098125" transform="rotate(-0 112.387285 233.098125)">0</text>
     </g>
    </g>
    <g id="xtick_5">
     <g id="line2d_5">
      <g>
       <use xlink:href="#m8ef4871730" x="145.228463" y="214.988125" style="stroke: #000000; stroke-width: 0.8"/>
      </g>
     </g>
     <g id="xtick.0.4">
      <text style="font-size: 16px; font-family: 'Times New Roman'; text-anchor: middle" x="145.228463" y="233.098125" transform="rotate(-0 145.228463 233.098125)">2</text>
     </g>
    </g>
    <g id="xtick_6">
     <g id="line2d_6">
      <g>
       <use xlink:href="#m8ef4871730" x="178.069641" y="214.988125" style="stroke: #000000; stroke-width: 0.8"/>
      </g>
     </g>
     <g id="xtick.0.5">
      <text style="font-size: 16px; font-family: 'Times New Roman'; text-anchor: middle" x="178.069641" y="233.098125" transform="rotate(-0 178.069641 233.098125)">4</text>
     </g>
    </g>
    <g id="xtick_7">
     <g id="line2d_7">
      <g>
       <use xlink:href="#m8ef4871730" x="210.91082" y="214.988125" style="stroke: #000000; stroke-width: 0.8"/>
      </g>
     </g>
     <g id="xtick.0.6">
      <text style="font-size: 16px; font-family: 'Times New Roman'; text-anchor: middle" x="210.91082" y="233.098125" transform="rotate(-0 210.91082 233.098125)">6</text>
     </g>
    </g>
    <g id="xtick_8">
     <g id="line2d_8">
      <g>
       <use xlink:href="#m8ef4871730" x="243.751998" y="214.988125" style="stroke: #000000; stroke-width: 0.8"/>
      </g>
     </g>
     <g id="xtick.0.7">
      <text style="font-size: 16px; font-family: 'Times New Roman'; text-anchor: middle" x="243.751998" y="233.098125" transform="rotate(-0 243.751998 233.098125)">8</text>
     </g>
    </g>
    <g id="xlabel.0">
     <text style="font-size: 22px; font-family: 'Times New Roman', 'SimSun', 'Microsoft YaHei', 'DejaVu Serif', serif; text-anchor: middle" x="128.807874" y="255.796875" transform="rotate(-0 128.807874 255.796875)">PCoA1 (54.4%)</text>
    </g>
   </g>
   <g id="spine.left.0">
    <path d="M 13.86375 214.988125 
L 13.86375 19.978125 
" style="fill: none; stroke: #202020; stroke-width: 2; stroke-linejoin: miter; stroke-linecap: square"/>
   </g>
   <g id="spine.right.0">
    <path d="M 243.751998 214.988125 
L 243.751998 19.978125 
" style="fill: none; stroke: #202020; stroke-width: 2; stroke-linejoin: miter; stroke-linecap: square"/>
   </g>
   <g id="spine.bottom.0">
    <path d="M 13.86375 214.988125 
L 243.751998 214.988125 
" style="fill: none; stroke: #202020; stroke-width: 2; stroke-linejoin: miter; stroke-linecap: square"/>
   </g>
   <g id="spine.top.0">
    <path d="M 13.86375 19.978125 
L 243.751998 19.978125 
" style="fill: none; stroke: #202020; stroke-width: 2; stroke-linejoin: miter; stroke-linecap: square"/>
   </g>
   <g id="text.0.0">
    <text style="font-size: 14px; font-family: 'Times New Roman', 'SimSun', 'Microsoft YaHei', 'DejaVu Serif', serif; text-anchor: middle; fill: #2d2d2d" x="180.343008" y="48.416505" transform="rotate(-0 180.343008 48.416505)">24 h</text>
   </g>
   <g id="text.0.1">
    <text style="font-size: 14px; font-family: 'Times New Roman', 'SimSun', 'Microsoft YaHei', 'DejaVu Serif', serif; text-anchor: middle; fill: #2d2d2d" x="159.703245" y="159.351012" transform="rotate(-0 159.703245 159.351012)">48 h</text>
   </g>
   <g id="text.0.2">
    <text style="font-size: 14px; font-family: 'Times New Roman', 'SimSun', 'Microsoft YaHei', 'DejaVu Serif', serif; text-anchor: middle; fill: #2d2d2d" x="155.023725" y="179.075713" transform="rotate(-0 155.023725 179.075713)">72 h</text>
   </g>
   <g id="text.0.3">
    <text style="font-size: 14px; font-family: 'Times New Roman', 'SimSun', 'Microsoft YaHei', 'DejaVu Serif', serif; text-anchor: middle; fill: #2d2d2d" x="199.853232" y="103.990222" transform="rotate(-0 199.853232 103.990222)">Cum.</text>
   </g>
   <g id="text.0.4">
    <!-- PERMANOVA R$^2$=0.63, p=0.001 -->
    <g style="fill: #202020" transform="translate(18.461515 38.718325)">
     <text>
      <tspan x="0" y="-0.277687" style="font-size: 14px; font-family: 'Times New Roman'; fill: #202020">P</tspan>
      <tspan x="7.786133" y="-0.277687" style="font-size: 14px; font-family: 'Times New Roman'; fill: #202020">E</tspan>
      <tspan x="16.337891" y="-0.277687" style="font-size: 14px; font-family: 'Times New Roman'; fill: #202020">R</tspan>
      <tspan x="25.675781" y="-0.277687" style="font-size: 14px; font-family: 'Times New Roman'; fill: #202020">M</tspan>
      <tspan x="38.124023" y="-0.277687" style="font-size: 14px; font-family: 'Times New Roman'; fill: #202020">A</tspan>
      <tspan x="48.234375" y="-0.277687" style="font-size: 14px; font-family: 'Times New Roman'; fill: #202020">N</tspan>
      <tspan x="58.344727" y="-0.277687" style="font-size: 14px; font-family: 'Times New Roman'; fill: #202020">O</tspan>
      <tspan x="68.455078" y="-0.277687" style="font-size: 14px; font-family: 'Times New Roman'; fill: #202020">V</tspan>
      <tspan x="78.56543" y="-0.277687" style="font-size: 14px; font-family: 'Times New Roman'; fill: #202020">A</tspan>
      <tspan x="88.675781" y="-0.277687" style="font-size: 14px; font-family: 'Times New Roman'; fill: #202020"> </tspan>
      <tspan x="92.175781" y="-0.277687" style="font-size: 14px; font-family: 'Times New Roman'; fill: #202020">R</tspan>
      <tspan x="107.194183" y="-0.277687" style="font-size: 14px; font-family: 'Times New Roman'; fill: #202020">=</tspan>
      <tspan x="115.089691" y="-0.277687" style="font-size: 14px; font-family: 'Times New Roman'; fill: #202020">0</tspan>
      <tspan x="122.089691" y="-0.277687" style="font-size: 14px; font-family: 'Times New Roman'; fill: #202020">.</tspan>
      <tspan x="125.589691" y="-0.277687" style="font-size: 14px; font-family: 'Times New Roman'; fill: #202020">6</tspan>
      <tspan x="132.589691" y="-0.277687" style="font-size: 14px; font-family: 'Times New Roman'; fill: #202020">3</tspan>
      <tspan x="139.589691" y="-0.277687" style="font-size: 14px; font-family: 'Times New Roman'; fill: #202020">,</tspan>
      <tspan x="143.089691" y="-0.277687" style="font-size: 14px; font-family: 'Times New Roman'; fill: #202020"> </tspan>
      <tspan x="146.589691" y="-0.277687" style="font-size: 14px; font-family: 'Times New Roman'; fill: #202020">p</tspan>
      <tspan x="153.589691" y="-0.277687" style="font-size: 14px; font-family: 'Times New Roman'; fill: #202020">=</tspan>
      <tspan x="161.485198" y="-0.277687" style="font-size: 14px; font-family: 'Times New Roman'; fill: #202020">0</tspan>
      <tspan x="168.485198" y="-0.277687" style="font-size: 14px; font-family: 'Times New Roman'; fill: #202020">.</tspan>
      <tspan x="171.985198" y="-0.277687" style="font-size: 14px; font-family: 'Times New Roman'; fill: #202020">0</tspan>
      <tspan x="178.985198" y="-0.277687" style="font-size: 14px; font-family: 'Times New Roman'; fill: #202020">0</tspan>
      <tspan x="185.985198" y="-0.277687" style="font-size: 14px; font-family: 'Times New Roman'; fill: #202020">1</tspan>
      <tspan x="101.716027" y="-8.371875" style="font-size: 9.8px; font-family: 'Times New Roman'; fill: #202020">2</tspan>
     </text>
    </g>
   </g>
   <g id="title.left.0">
    <text style="font-weight: 700; font-size: 10px; font-family: 'Times New Roman', 'SimSun', 'Microsoft YaHei', 'DejaVu Serif', serif; text-anchor: start" x="13.86375" y="13.978125" transform="rotate(-0 13.86375 13.978125)">PCoA of cluster-derived temporal phenotypes</text>
   </g>
   <g id="legend.0">
    <g id="PathCollection_1">
     <g>
      <use xlink:href="#md9a4c171de" x="261.839763" y="101.976312" style="fill: #d62728; fill-opacity: 0.92; stroke: #ffffff; stroke-opacity: 0.92; stroke-width: 0.55"/>
     </g>
    </g>
    <g id="legend_text.0.0">
     <text style="font-size: 7.4px; font-family: 'Times New Roman', 'SimSun', 'Microsoft YaHei', 'DejaVu Serif', serif; text-anchor: start" x="271.779763" y="103.840062" transform="rotate(-0 271.779763 103.840062)">Consistent promotion</text>
    </g>
    <g id="PathCollection_2">
     <g>
      <use xlink:href="#m74369be50c" x="261.839763" y="112.247594" style="fill: #e69f00; fill-opacity: 0.92; stroke: #ffffff; stroke-opacity: 0.92; stroke-width: 0.55"/>
     </g>
    </g>
    <g id="legend_text.0.1">
     <text style="font-size: 7.4px; font-family: 'Times New Roman', 'SimSun', 'Microsoft YaHei', 'DejaVu Serif', serif; text-anchor: start" x="271.779763" y="114.111344" transform="rotate(-0 271.779763 114.111344)">Early promotion / switching</text>
    </g>
    <g id="PathCollection_3">
     <g>
      <use xlink:href="#m636e536869" x="261.839763" y="122.53275" style="fill: #7b3294; fill-opacity: 0.92; stroke: #ffffff; stroke-opacity: 0.92; stroke-width: 0.55"/>
     </g>
    </g>
    <g id="legend_text.0.2">
     <text style="font-size: 7.4px; font-family: 'Times New Roman', 'SimSun', 'Microsoft YaHei', 'DejaVu Serif', serif; text-anchor: start" x="271.779763" y="124.3965" transform="rotate(-0 271.779763 124.3965)">Mixed response</text>
    </g>
    <g id="PathCollection_4">
     <g>
      <use xlink:href="#m2b2c3afea3" x="261.839763" y="132.804031" style="fill: #009e73; fill-opacity: 0.92; stroke: #ffffff; stroke-opacity: 0.92; stroke-width: 0.55"/>
     </g>
    </g>
    <g id="legend_text.0.3">
     <text style="font-size: 7.4px; font-family: 'Times New Roman', 'SimSun', 'Microsoft YaHei', 'DejaVu Serif', serif; text-anchor: start" x="271.779763" y="134.667781" transform="rotate(-0 271.779763 134.667781)">Weak / delayed response</text>
    </g>
   </g>
  </g>
 </g>
 <defs>
  <clipPath id="pc9a90beff7">
   <rect x="13.86375" y="19.978125" width="229.888248" height="195.01"/>
  </clipPath>
 </defs>
</svg>
