<?xml version="1.0" encoding="utf-8" standalone="no"?>
<!DOCTYPE svg PUBLIC "-//W3C//DTD SVG 1.1//EN"
  "http://www.w3.org/Graphics/SVG/1.1/DTD/svg11.dtd">
<svg xmlns:xlink="http://www.w3.org/1999/xlink" width="365.08727pt" height="267.142187pt" viewBox="0 0 365.08727 267.142187" xmlns="http://www.w3.org/2000/svg" version="1.1">
 <metadata>
  <rdf:RDF xmlns:dc="http://purl.org/dc/elements/1.1/" xmlns:cc="http://creativecommons.org/ns#" xmlns:rdf="http://www.w3.org/1999/02/22-rdf-syntax-ns#">
   <cc:Work>
    <dc:type rdf:resource="http://purl.org/dc/dcmitype/StillImage"/>
    <dc:format>image/svg+xml</dc:format>
    <dc:creator>
     <cc:Agent>
      <dc:title>Matplotlib v3.8.4, https://matplotlib.org/</dc:title>
     </cc:Agent>
    </dc:creator>
   </cc:Work>
  </rdf:RDF>
 </metadata>
 <defs>
  <style type="text/css">*{stroke-linejoin: round; stroke-linecap: butt}</style>
 </defs>
 <g id="figure_1">
  <g id="patch_1">
   <path d="M 0 267.142187 
L 365.08727 267.142187 
L 365.08727 0 
L 0 0 
z
" style="fill: #ffffff"/>
  </g>
  <g id="spine_group.0">
   <g id="patch_2">
    <path d="M 13.86375 214.4275 
L 243.780498 214.4275 
L 243.780498 19.978125 
L 13.86375 19.978125 
z
" style="fill: #ffffff"/>
   </g>
   <g id="line.0.0">
    <path d="M 13.86375 106.400069 
L 243.780498 106.400069 
" clip-path="url(#p7b791d71a3)" style="fill: none; stroke-dasharray: 2.59,1.12; stroke-dashoffset: 0; stroke: #c0c0c0; stroke-width: 0.7"/>
   </g>
   <g id="line.0.1">
    <path d="M 112.399499 214.4275 
L 112.399499 19.978125 
" clip-path="url(#p7b791d71a3)" style="fill: none; stroke-dasharray: 2.59,1.12; stroke-dashoffset: 0; stroke: #c0c0c0; stroke-width: 0.7"/>
   </g>
   <g id="patch.0.0">
    <path d="M 156.791344 62.417758 
C 150.239801 62.237759 143.933585 63.458954 139.261566 65.812389 
C 134.589547 68.165824 131.933175 71.459352 131.877486 74.96761 
C 131.821796 78.475869 134.371335 81.912425 138.964597 84.520417 
C 143.557859 87.128409 149.819823 88.694905 156.371366 88.874904 
C 162.922909 89.054903 169.229125 87.833708 173.901144 85.480273 
C 178.573163 83.126838 181.229535 79.833311 181.285224 76.325052 
C 181.340914 72.816793 178.791375 69.380237 174.198113 66.772245 
C 169.604851 64.164254 163.342887 62.597757 156.791344 62.417758 
z
" clip-path="url(#p7b791d71a3)" style="fill: #d62728; opacity: 0.12; stroke: #d62728; stroke-width: 1.1; stroke-linejoin: miter"/>
   </g>
   <g id="collection.0.0">
    <defs>
     <path id="md9a4c171de" d="M 0 3.354102 
C 0.889518 3.354102 1.742724 3.000693 2.371708 2.371708 
C 3.000693 1.742724 3.354102 0.889518 3.354102 0 
C 3.354102 -0.889518 3.000693 -1.742724 2.371708 -2.371708 
C 1.742724 -3.000693 0.889518 -3.354102 0 -3.354102 
C -0.889518 -3.354102 -1.742724 -3.000693 -2.371708 -2.371708 
C -3.000693 -1.742724 -3.354102 -0.889518 -3.354102 0 
C -3.354102 0.889518 -3.000693 1.742724 -2.371708 2.371708 
C -1.742724 3.000693 -0.889518 3.354102 0 3.354102 
z
" style="stroke: #ffffff; stroke-opacity: 0.92; stroke-width: 0.55"/>
    </defs>
    <g clip-path="url(#p7b791d71a3)">
     <use xlink:href="#md9a4c171de" x="176.180376" y="86.937045" style="fill: #d62728; fill-opacity: 0.92; stroke: #ffffff; stroke-opacity: 0.92; stroke-width: 0.55"/>
     <use xlink:href="#md9a4c171de" x="179.222745" y="68.843535" style="fill: #d62728; fill-opacity: 0.92; stroke: #ffffff; stroke-opacity: 0.92; stroke-width: 0.55"/>
     <use xlink:href="#md9a4c171de" x="130.873371" y="86.489359" style="fill: #d62728; fill-opacity: 0.92; stroke: #ffffff; stroke-opacity: 0.92; stroke-width: 0.55"/>
     <use xlink:href="#md9a4c171de" x="140.048928" y="60.315385" style="fill: #d62728; fill-opacity: 0.92; stroke: #ffffff; stroke-opacity: 0.92; stroke-width: 0.55"/>
    </g>
   </g>
   <g id="patch.0.1">
    <path d="M 127.204545 99.606874 
C 122.66551 100.392509 118.431795 102.346278 115.435828 105.037886 
C 112.43986 107.729495 110.926247 110.939185 111.228344 113.960059 
C 111.530442 116.980934 113.623584 119.566352 117.046782 121.146906 
C 120.46998 122.727459 124.943743 123.174103 129.482779 122.388468 
C 134.021814 121.602833 138.255528 119.649064 141.251496 116.957456 
C 144.247464 114.265847 145.761076 111.056157 145.458979 108.035282 
C 145.156882 105.014408 143.063739 102.42899 139.640542 100.848436 
C 136.217344 99.267883 131.74358 98.821239 127.204545 99.606874 
z
" clip-path="url(#p7b791d71a3)" style="fill: #e69f00; opacity: 0.12; stroke: #e69f00; stroke-width: 1.1; stroke-linejoin: miter"/>
   </g>
   <g id="collection.0.1">
    <defs>
     <path id="m74369be50c" d="M 0 3.354102 
C 0.889518 3.354102 1.742724 3.000693 2.371708 2.371708 
C 3.000693 1.742724 3.354102 0.889518 3.354102 0 
C 3.354102 -0.889518 3.000693 -1.742724 2.371708 -2.371708 
C 1.742724 -3.000693 0.889518 -3.354102 0 -3.354102 
C -0.889518 -3.354102 -1.742724 -3.000693 -2.371708 -2.371708 
C -3.000693 -1.742724 -3.354102 -0.889518 -3.354102 0 
C -3.354102 0.889518 -3.000693 1.742724 -2.371708 2.371708 
C -1.742724 3.000693 -0.889518 3.354102 0 3.354102 
z
" style="stroke: #ffffff; stroke-opacity: 0.92; stroke-width: 0.55"/>
    </defs>
    <g clip-path="url(#p7b791d71a3)">
     <use xlink:href="#m74369be50c" x="163.132445" y="101.714521" style="fill: #e69f00; fill-opacity: 0.92; stroke: #ffffff; stroke-opacity: 0.92; stroke-width: 0.55"/>
     <use xlink:href="#m74369be50c" x="135.010614" y="120.861967" style="fill: #e69f00; fill-opacity: 0.92; stroke: #ffffff; stroke-opacity: 0.92; stroke-width: 0.55"/>
     <use xlink:href="#m74369be50c" x="126.420267" y="129.793068" style="fill: #e69f00; fill-opacity: 0.92; stroke: #ffffff; stroke-opacity: 0.92; stroke-width: 0.55"/>
     <use xlink:href="#m74369be50c" x="109.539882" y="117.347504" style="fill: #e69f00; fill-opacity: 0.92; stroke: #ffffff; stroke-opacity: 0.92; stroke-width: 0.55"/>
     <use xlink:href="#m74369be50c" x="119.97633" y="97.725958" style="fill: #e69f00; fill-opacity: 0.92; stroke: #ffffff; stroke-opacity: 0.92; stroke-width: 0.55"/>
     <use xlink:href="#m74369be50c" x="120.293753" y="105.211789" style="fill: #e69f00; fill-opacity: 0.92; stroke: #ffffff; stroke-opacity: 0.92; stroke-width: 0.55"/>
     <use xlink:href="#m74369be50c" x="124.032341" y="104.328888" style="fill: #e69f00; fill-opacity: 0.92; stroke: #ffffff; stroke-opacity: 0.92; stroke-width: 0.55"/>
    </g>
   </g>
   <g id="patch.0.2">
    <path d="M 127.052738 119.855893 
C 124.652054 115.7588 121.55875 112.630771 118.454093 111.160717 
C 115.349435 109.690663 112.486904 109.998609 110.496939 112.016732 
C 108.506974 114.034854 107.552047 117.598384 107.84247 121.922495 
C 108.132893 126.246605 109.644953 130.978252 112.045638 135.075345 
C 114.446322 139.172438 117.539625 142.300468 120.644283 143.770521 
C 123.748941 145.240575 126.611472 144.93263 128.601437 142.914507 
C 130.591402 140.896384 131.546329 137.332854 131.255906 133.008744 
C 130.965483 128.684633 129.453423 123.952986 127.052738 119.855893 
z
" clip-path="url(#p7b791d71a3)" style="fill: #7b3294; opacity: 0.12; stroke: #7b3294; stroke-width: 1.1; stroke-linejoin: miter"/>
   </g>
   <g id="collection.0.2">
    <defs>
     <path id="m636e536869" d="M 0 3.354102 
C 0.889518 3.354102 1.742724 3.000693 2.371708 2.371708 
C 3.000693 1.742724 3.354102 0.889518 3.354102 0 
C 3.354102 -0.889518 3.000693 -1.742724 2.371708 -2.371708 
C 1.742724 -3.000693 0.889518 -3.354102 0 -3.354102 
C -0.889518 -3.354102 -1.742724 -3.000693 -2.371708 -2.371708 
C -3.000693 -1.742724 -3.354102 -0.889518 -3.354102 0 
C -3.354102 0.889518 -3.000693 1.742724 -2.371708 2.371708 
C -1.742724 3.000693 -0.889518 3.354102 0 3.354102 
z
" style="stroke: #ffffff; stroke-opacity: 0.92; stroke-width: 0.55"/>
    </defs>
    <g clip-path="url(#p7b791d71a3)">
     <use xlink:href="#m636e536869" x="127.595051" y="172.675578" style="fill: #7b3294; fill-opacity: 0.92; stroke: #ffffff; stroke-opacity: 0.92; stroke-width: 0.55"/>
     <use xlink:href="#m636e536869" x="137.732667" y="136.55811" style="fill: #7b3294; fill-opacity: 0.92; stroke: #ffffff; stroke-opacity: 0.92; stroke-width: 0.55"/>
     <use xlink:href="#m636e536869" x="128.453935" y="118.989529" style="fill: #7b3294; fill-opacity: 0.92; stroke: #ffffff; stroke-opacity: 0.92; stroke-width: 0.55"/>
     <use xlink:href="#m636e536869" x="136.839922" y="129.51633" style="fill: #7b3294; fill-opacity: 0.92; stroke: #ffffff; stroke-opacity: 0.92; stroke-width: 0.55"/>
     <use xlink:href="#m636e536869" x="101.163503" y="130.13068" style="fill: #7b3294; fill-opacity: 0.92; stroke: #ffffff; stroke-opacity: 0.92; stroke-width: 0.55"/>
     <use xlink:href="#m636e536869" x="110.837131" y="108.67387" style="fill: #7b3294; fill-opacity: 0.92; stroke: #ffffff; stroke-opacity: 0.92; stroke-width: 0.55"/>
     <use xlink:href="#m636e536869" x="111.407806" y="109.519998" style="fill: #7b3294; fill-opacity: 0.92; stroke: #ffffff; stroke-opacity: 0.92; stroke-width: 0.55"/>
     <use xlink:href="#m636e536869" x="109.891795" y="124.692481" style="fill: #7b3294; fill-opacity: 0.92; stroke: #ffffff; stroke-opacity: 0.92; stroke-width: 0.55"/>
     <use xlink:href="#m636e536869" x="113.777001" y="119.239929" style="fill: #7b3294; fill-opacity: 0.92; stroke: #ffffff; stroke-opacity: 0.92; stroke-width: 0.55"/>
     <use xlink:href="#m636e536869" x="118.178568" y="125.187817" style="fill: #7b3294; fill-opacity: 0.92; stroke: #ffffff; stroke-opacity: 0.92; stroke-width: 0.55"/>
     <use xlink:href="#m636e536869" x="119.163689" y="126.937488" style="fill: #7b3294; fill-opacity: 0.92; stroke: #ffffff; stroke-opacity: 0.92; stroke-width: 0.55"/>
    </g>
   </g>
   <g id="patch.0.3">
    <path d="M 94.418282 85.849037 
C 91.207548 85.697653 88.089116 86.975586 85.749786 89.401387 
C 83.410455 91.827187 82.041221 95.202798 81.943642 98.784782 
C 81.846064 102.366765 83.028106 105.862668 85.22944 108.502557 
C 87.430773 111.142446 90.471668 112.710787 93.682402 112.862171 
C 96.893136 113.013555 100.011568 111.735622 102.350899 109.309822 
C 104.690229 106.884022 106.059463 103.50841 106.157042 99.926427 
C 106.254621 96.344443 105.072578 92.848541 102.871245 90.208651 
C 100.669911 87.568762 97.629017 86.000421 94.418282 85.849037 
z
" clip-path="url(#p7b791d71a3)" style="fill: #009e73; opacity: 0.12; stroke: #009e73; stroke-width: 1.1; stroke-linejoin: miter"/>
   </g>
   <g id="collection.0.3">
    <defs>
     <path id="m2b2c3afea3" d="M 0 3.354102 
C 0.889518 3.354102 1.742724 3.000693 2.371708 2.371708 
C 3.000693 1.742724 3.354102 0.889518 3.354102 0 
C 3.354102 -0.889518 3.000693 -1.742724 2.371708 -2.371708 
C 1.742724 -3.000693 0.889518 -3.354102 0 -3.354102 
C -0.889518 -3.354102 -1.742724 -3.000693 -2.371708 -2.371708 
C -3.000693 -1.742724 -3.354102 -0.889518 -3.354102 0 
C -3.354102 0.889518 -3.000693 1.742724 -2.371708 2.371708 
C -1.742724 3.000693 -0.889518 3.354102 0 3.354102 
z
" style="stroke: #ffffff; stroke-opacity: 0.92; stroke-width: 0.55"/>
    </defs>
    <g clip-path="url(#p7b791d71a3)">
     <use xlink:href="#m2b2c3afea3" x="62.802489" y="87.908101" style="fill: #009e73; fill-opacity: 0.92; stroke: #ffffff; stroke-opacity: 0.92; stroke-width: 0.55"/>
     <use xlink:href="#m2b2c3afea3" x="74.606143" y="85.49642" style="fill: #009e73; fill-opacity: 0.92; stroke: #ffffff; stroke-opacity: 0.92; stroke-width: 0.55"/>
     <use xlink:href="#m2b2c3afea3" x="92.134586" y="92.099356" style="fill: #009e73; fill-opacity: 0.92; stroke: #ffffff; stroke-opacity: 0.92; stroke-width: 0.55"/>
     <use xlink:href="#m2b2c3afea3" x="89.10416" y="102.054477" style="fill: #009e73; fill-opacity: 0.92; stroke: #ffffff; stroke-opacity: 0.92; stroke-width: 0.55"/>
     <use xlink:href="#m2b2c3afea3" x="86.140711" y="95.318103" style="fill: #009e73; fill-opacity: 0.92; stroke: #ffffff; stroke-opacity: 0.92; stroke-width: 0.55"/>
     <use xlink:href="#m2b2c3afea3" x="85.839735" y="98.767089" style="fill: #009e73; fill-opacity: 0.92; stroke: #ffffff; stroke-opacity: 0.92; stroke-width: 0.55"/>
     <use xlink:href="#m2b2c3afea3" x="123.272243" y="76.631712" style="fill: #009e73; fill-opacity: 0.92; stroke: #ffffff; stroke-opacity: 0.92; stroke-width: 0.55"/>
     <use xlink:href="#m2b2c3afea3" x="93.368437" y="80.827587" style="fill: #009e73; fill-opacity: 0.92; stroke: #ffffff; stroke-opacity: 0.92; stroke-width: 0.55"/>
     <use xlink:href="#m2b2c3afea3" x="97.791526" y="82.057025" style="fill: #009e73; fill-opacity: 0.92; stroke: #ffffff; stroke-opacity: 0.92; stroke-width: 0.55"/>
     <use xlink:href="#m2b2c3afea3" x="97.082716" y="125.271108" style="fill: #009e73; fill-opacity: 0.92; stroke: #ffffff; stroke-opacity: 0.92; stroke-width: 0.55"/>
     <use xlink:href="#m2b2c3afea3" x="91.999999" y="128.362457" style="fill: #009e73; fill-opacity: 0.92; stroke: #ffffff; stroke-opacity: 0.92; stroke-width: 0.55"/>
     <use xlink:href="#m2b2c3afea3" x="92.05356" y="104.201975" style="fill: #009e73; fill-opacity: 0.92; stroke: #ffffff; stroke-opacity: 0.92; stroke-width: 0.55"/>
     <use xlink:href="#m2b2c3afea3" x="90.698177" y="107.082344" style="fill: #009e73; fill-opacity: 0.92; stroke: #ffffff; stroke-opacity: 0.92; stroke-width: 0.55"/>
     <use xlink:href="#m2b2c3afea3" x="98.647485" y="105.840734" style="fill: #009e73; fill-opacity: 0.92; stroke: #ffffff; stroke-opacity: 0.92; stroke-width: 0.55"/>
     <use xlink:href="#m2b2c3afea3" x="105.107173" y="106.367079" style="fill: #009e73; fill-opacity: 0.92; stroke: #ffffff; stroke-opacity: 0.92; stroke-width: 0.55"/>
     <use xlink:href="#m2b2c3afea3" x="105.452839" y="97.515628" style="fill: #009e73; fill-opacity: 0.92; stroke: #ffffff; stroke-opacity: 0.92; stroke-width: 0.55"/>
     <use xlink:href="#m2b2c3afea3" x="100.720139" y="93.362336" style="fill: #009e73; fill-opacity: 0.92; stroke: #ffffff; stroke-opacity: 0.92; stroke-width: 0.55"/>
     <use xlink:href="#m2b2c3afea3" x="95.562131" y="112.003198" style="fill: #009e73; fill-opacity: 0.92; stroke: #ffffff; stroke-opacity: 0.92; stroke-width: 0.55"/>
     <use xlink:href="#m2b2c3afea3" x="100.381751" y="103.624135" style="fill: #009e73; fill-opacity: 0.92; stroke: #ffffff; stroke-opacity: 0.92; stroke-width: 0.55"/>
     <use xlink:href="#m2b2c3afea3" x="98.240846" y="102.321222" style="fill: #009e73; fill-opacity: 0.92; stroke: #ffffff; stroke-opacity: 0.92; stroke-width: 0.55"/>
    </g>
   </g>
   <g id="patch.0.4">
    <path d="M 175.329266 183.274531 
L 174.029114 182.497071 
L 174.325242 182.077508 
L 112.388324 106.415902 
L 112.410674 106.384237 
L 174.347591 182.045843 
L 174.64372 181.626281 
z
" clip-path="url(#p7b791d71a3)" style="fill: #2d2d2d; opacity: 0.82; stroke: #2d2d2d; stroke-linejoin: miter"/>
   </g>
   <g id="patch.0.5">
    <path d="M 156.216005 80.852692 
L 155.160322 82.118098 
L 154.983989 81.594656 
L 112.406153 106.419822 
L 112.392845 106.380317 
L 154.970681 81.555151 
L 154.794347 81.031708 
z
" clip-path="url(#p7b791d71a3)" style="fill: #2d2d2d; opacity: 0.82; stroke: #2d2d2d; stroke-linejoin: miter"/>
   </g>
   <g id="patch.0.6">
    <path d="M 151.882579 62.641585 
L 151.137358 64.244381 
L 150.856969 63.806503 
L 112.41008 106.416593 
L 112.388918 106.383546 
L 150.835807 63.773456 
L 150.555418 63.335578 
z
" clip-path="url(#p7b791d71a3)" style="fill: #2d2d2d; opacity: 0.82; stroke: #2d2d2d; stroke-linejoin: miter"/>
   </g>
   <g id="patch.0.7">
    <path d="M 193.396527 131.965318 
L 191.973686 132.127235 
L 192.075216 131.570489 
L 112.395668 106.421079 
L 112.40333 106.37906 
L 192.082878 131.52847 
L 192.184409 130.971724 
z
" clip-path="url(#p7b791d71a3)" style="fill: #2d2d2d; opacity: 0.82; stroke: #2d2d2d; stroke-linejoin: miter"/>
   </g>
   <g id="axis.x.0">
    <g id="xtick_1">
     <g id="line2d_1">
      <defs>
       <path id="m8ef4871730" d="M 0 0 
L 0 3.5 
" style="stroke: #000000; stroke-width: 0.8"/>
      </defs>
      <g>
       <use xlink:href="#m8ef4871730" x="13.86375" y="214.4275" style="stroke: #000000; stroke-width: 0.8"/>
      </g>
     </g>
     <g id="xtick.0.0">
      <text style="font: 16px 'Times New Roman'; text-anchor: middle" x="13.86375" y="232.5375" transform="rotate(-0 13.86375 232.5375)">-6</text>
     </g>
    </g>
    <g id="xtick_2">
     <g id="line2d_2">
      <g>
       <use xlink:href="#m8ef4871730" x="46.709" y="214.4275" style="stroke: #000000; stroke-width: 0.8"/>
      </g>
     </g>
     <g id="xtick.0.1">
      <text style="font: 16px 'Times New Roman'; text-anchor: middle" x="46.709" y="232.5375" transform="rotate(-0 46.709 232.5375)">-4</text>
     </g>
    </g>
    <g id="xtick_3">
     <g id="line2d_3">
      <g>
       <use xlink:href="#m8ef4871730" x="79.554249" y="214.4275" style="stroke: #000000; stroke-width: 0.8"/>
      </g>
     </g>
     <g id="xtick.0.2">
      <text style="font: 16px 'Times New Roman'; text-anchor: middle" x="79.554249" y="232.5375" transform="rotate(-0 79.554249 232.5375)">-2</text>
     </g>
    </g>
    <g id="xtick_4">
     <g id="line2d_4">
      <g>
       <use xlink:href="#m8ef4871730" x="112.399499" y="214.4275" style="stroke: #000000; stroke-width: 0.8"/>
      </g>
     </g>
     <g id="xtick.0.3">
      <text style="font: 16px 'Times New Roman'; text-anchor: middle" x="112.399499" y="232.5375" transform="rotate(-0 112.399499 232.5375)">0</text>
     </g>
    </g>
    <g id="xtick_5">
     <g id="line2d_5">
      <g>
       <use xlink:href="#m8ef4871730" x="145.244749" y="214.4275" style="stroke: #000000; stroke-width: 0.8"/>
      </g>
     </g>
     <g id="xtick.0.4">
      <text style="font: 16px 'Times New Roman'; text-anchor: middle" x="145.244749" y="232.5375" transform="rotate(-0 145.244749 232.5375)">2</text>
     </g>
    </g>
    <g id="xtick_6">
     <g id="line2d_6">
      <g>
       <use xlink:href="#m8ef4871730" x="178.089999" y="214.4275" style="stroke: #000000; stroke-width: 0.8"/>
      </g>
     </g>
     <g id="xtick.0.5">
      <text style="font: 16px 'Times New Roman'; text-anchor: middle" x="178.089999" y="232.5375" transform="rotate(-0 178.089999 232.5375)">4</text>
     </g>
    </g>
    <g id="xtick_7">
     <g id="line2d_7">
      <g>
       <use xlink:href="#m8ef4871730" x="210.935248" y="214.4275" style="stroke: #000000; stroke-width: 0.8"/>
      </g>
     </g>
     <g id="xtick.0.6">
      <text style="font: 16px 'Times New Roman'; text-anchor: middle" x="210.935248" y="232.5375" transform="rotate(-0 210.935248 232.5375)">6</text>
     </g>
    </g>
    <g id="xtick_8">
     <g id="line2d_8">
      <g>
       <use xlink:href="#m8ef4871730" x="243.780498" y="214.4275" style="stroke: #000000; stroke-width: 0.8"/>
      </g>
     </g>
     <g id="xtick.0.7">
      <text style="font: 16px 'Times New Roman'; text-anchor: middle" x="243.780498" y="232.5375" transform="rotate(-0 243.780498 232.5375)">8</text>
     </g>
    </g>
    <g id="xlabel.0">
     <text style="font: 22px 'Times New Roman', 'SimSun', 'Microsoft YaHei', 'DejaVu Serif', serif; text-anchor: middle" x="128.822124" y="255.23625" transform="rotate(-0 128.822124 255.23625)">PCoA1 (54.4%)</text>
    </g>
   </g>
   <g id="spine.left.0">
    <path d="M 13.86375 214.4275 
L 13.86375 19.978125 
" style="fill: none; stroke: #202020; stroke-width: 2; stroke-linejoin: miter; stroke-linecap: square"/>
   </g>
   <g id="spine.right.0">
    <path d="M 243.780498 214.4275 
L 243.780498 19.978125 
" style="fill: none; stroke: #202020; stroke-width: 2; stroke-linejoin: miter; stroke-linecap: square"/>
   </g>
   <g id="spine.bottom.0">
    <path d="M 13.86375 214.4275 
L 243.780498 214.4275 
" style="fill: none; stroke: #202020; stroke-width: 2; stroke-linejoin: miter; stroke-linecap: square"/>
   </g>
   <g id="spine.top.0">
    <path d="M 13.86375 19.978125 
L 243.780498 19.978125 
" style="fill: none; stroke: #202020; stroke-width: 2; stroke-linejoin: miter; stroke-linecap: square"/>
   </g>
   <g id="text.0.0">
    <text style="fill: #2d2d2d; font: 14px 'Times New Roman', 'SimSun', 'Microsoft YaHei', 'DejaVu Serif', serif; text-anchor: middle" x="180.363647" y="192.78777" transform="rotate(-0 180.363647 192.78777)">24 h</text>
   </g>
   <g id="text.0.1">
    <text style="fill: #2d2d2d; font: 14px 'Times New Roman', 'SimSun', 'Microsoft YaHei', 'DejaVu Serif', serif; text-anchor: middle" x="159.721325" y="82.172183" transform="rotate(-0 159.721325 82.172183)">48 h</text>
   </g>
   <g id="text.0.2">
    <text style="fill: #2d2d2d; font: 14px 'Times New Roman', 'SimSun', 'Microsoft YaHei', 'DejaVu Serif', serif; text-anchor: middle" x="155.041225" y="62.504188" transform="rotate(-0 155.041225 62.504188)">72 h</text>
   </g>
   <g id="text.0.3">
    <text style="fill: #2d2d2d; font: 14px 'Times New Roman', 'SimSun', 'Microsoft YaHei', 'DejaVu Serif', serif; text-anchor: middle" x="199.87629" y="137.373819" transform="rotate(-0 199.87629 137.373819)">Cum.</text>
   </g>
   <g id="text.0.4">
    <!-- PERMANOVA R$^2$=0.63, p=0.001 -->
    <g style="fill: #202020" transform="translate(18.462085 38.707113)">
     <text>
      <tspan style="font: 14px 'Times New Roman'" x="0 7.786133 16.337891 25.675781 38.124023 48.234375 58.344727 68.455078 78.56543 88.675781 92.175781 107.194183 115.089691 122.089691 125.589691 132.589691 139.589691 143.089691 146.589691 153.589691 161.485198 168.485198 171.985198 178.985198 185.985198" y="-0.277687499999999">PERMANOVA R=0.63, p=0.001</tspan>
      <tspan style="font: 9.8px 'Times New Roman'" x="101.716027" y="-8.371875">2</tspan>
     </text>
    </g>
   </g>
   <g id="title.left.0">
    <text style="font: 700 10px 'Times New Roman', 'SimSun', 'Microsoft YaHei', 'DejaVu Serif', serif; text-anchor: start" x="13.86375" y="13.978125" transform="rotate(-0 13.86375 13.978125)">PCoA of cluster-derived temporal phenotypes</text>
   </g>
   <g id="legend.0">
    <g id="PathCollection_1">
     <g>
      <use xlink:href="#md9a4c171de" x="261.868833" y="101.696" style="fill: #d62728; fill-opacity: 0.92; stroke: #ffffff; stroke-opacity: 0.92; stroke-width: 0.55"/>
     </g>
    </g>
    <g id="legend_text.0.0">
     <text style="font: 7.4px 'Times New Roman', 'SimSun', 'Microsoft YaHei', 'DejaVu Serif', serif; text-anchor: start" x="271.808833" y="103.55975" transform="rotate(-0 271.808833 103.55975)">Consistent promotion</text>
    </g>
    <g id="PathCollection_2">
     <g>
      <use xlink:href="#m74369be50c" x="261.868833" y="111.967281" style="fill: #e69f00; fill-opacity: 0.92; stroke: #ffffff; stroke-opacity: 0.92; stroke-width: 0.55"/>
     </g>
    </g>
    <g id="legend_text.0.1">
     <text style="font: 7.4px 'Times New Roman', 'SimSun', 'Microsoft YaHei', 'DejaVu Serif', serif; text-anchor: start" x="271.808833" y="113.831031" transform="rotate(-0 271.808833 113.831031)">Early promotion / switching</text>
    </g>
    <g id="PathCollection_3">
     <g>
      <use xlink:href="#m636e536869" x="261.868833" y="122.252438" style="fill: #7b3294; fill-opacity: 0.92; stroke: #ffffff; stroke-opacity: 0.92; stroke-width: 0.55"/>
     </g>
    </g>
    <g id="legend_text.0.2">
     <text style="font: 7.4px 'Times New Roman', 'SimSun', 'Microsoft YaHei', 'DejaVu Serif', serif; text-anchor: start" x="271.808833" y="124.116188" transform="rotate(-0 271.808833 124.116188)">Mixed response</text>
    </g>
    <g id="PathCollection_4">
     <g>
      <use xlink:href="#m2b2c3afea3" x="261.868833" y="132.523719" style="fill: #009e73; fill-opacity: 0.92; stroke: #ffffff; stroke-opacity: 0.92; stroke-width: 0.55"/>
     </g>
    </g>
    <g id="legend_text.0.3">
     <text style="font: 7.4px 'Times New Roman', 'SimSun', 'Microsoft YaHei', 'DejaVu Serif', serif; text-anchor: start" x="271.808833" y="134.387469" transform="rotate(-0 271.808833 134.387469)">Weak / delayed response</text>
    </g>
   </g>
  </g>
 </g>
 <defs>
  <clipPath id="p7b791d71a3">
   <rect x="13.86375" y="19.978125" width="229.916748" height="194.449375"/>
  </clipPath>
 </defs>
</svg>
